<svg width="23" height="23" viewBox="0 0 23 23" fill="none" xmlns="http://www.w3.org/2000/svg">
<path d="M21.0682 2.96816C20.6745 2.9683 20.297 3.12473 20.0187 3.40304L10.3132 13.1086L7.93702 8.43225C7.3575 7.85274 6.41764 7.85247 5.83778 8.43163C5.25792 9.0108 5.25764 9.9501 5.83715 10.5296L9.26325 16.2559C9.84304 16.8355 10.7833 16.8355 11.3631 16.2559L22.1186 5.5004C22.6981 4.92088 22.6979 3.98153 22.118 3.40235C21.8395 3.12421 21.4619 2.96803 21.0682 2.96816ZM11.3102 -0.00131612C8.4676 0.0290398 5.66237 1.14379 3.55036 3.25645C-0.00671279 6.8146 -0.733362 12.3368 1.78164 16.6942C4.29665 21.0516 9.44306 23.1843 14.3029 21.8818C19.1627 20.5792 22.5526 16.1593 22.5526 11.1282C22.5526 10.3089 21.888 9.64468 21.0682 9.64468C20.2484 9.64464 19.5838 10.3088 19.5838 11.1282C19.5838 14.8319 17.1086 18.0579 13.5338 19.016C9.95898 19.9742 6.20436 18.4189 4.35328 15.2117C2.50219 12.0046 3.03307 7.97183 5.65057 5.35353C8.26808 2.73523 12.2969 2.20479 15.5022 4.05598C16.2121 4.46591 17.12 4.22313 17.5302 3.51372C17.9403 2.80435 17.6974 1.89701 16.9877 1.48707C15.2177 0.464859 13.2552 -0.0220859 11.3102 -0.00131612Z" fill="url(#paint0_linear_92_139)"/>
<defs>
<linearGradient id="paint0_linear_92_139" x1="12.4571" y1="28.5687" x2="11.3263" y2="-6.27701" gradientUnits="userSpaceOnUse">
<stop stop-color="#041F76"/>
<stop offset="0.5" stop-color="#1A77DE"/>
<stop offset="1" stop-color="#2090FE"/>
</linearGradient>
</defs>
</svg>
